<?xml version="1.0" standalone="no"?>
<!DOCTYPE svg PUBLIC "-//W3C//DTD SVG 20010904//EN"
 "http://www.w3.org/TR/2001/REC-SVG-20010904/DTD/svg10.dtd">
<svg version="1.0" xmlns="http://www.w3.org/2000/svg"
 width="1740.000000pt" height="1915.000000pt" viewBox="0 0 1740.000000 1915.000000" fill="currentColor"
 preserveAspectRatio="xMidYMid meet">

<g transform="translate(0.000000,1915.000000) scale(0.100000,-0.100000)"
fill="#000000" stroke="none">
<path d="M6050 19124 c-57 -15 -109 -50 -144 -97 -14 -19 -53 -176 -135 -543
l-116 -517 -135 -39 c-188 -55 -439 -140 -607 -206 l-143 -56 0 -643 c0 -611
1 -644 18 -661 17 -17 45 -19 293 -25 711 -17 1370 -88 1879 -203 658 -149
1265 -402 1940 -809 l141 -85 -6 47 c-30 227 -81 421 -160 615 -65 159 -110
242 -147 273 -59 50 -429 291 -568 370 -572 326 -1175 524 -1835 604 -93 12
-208 24 -255 29 l-85 8 75 17 c276 63 552 91 880 91 621 -1 1172 -130 1735
-405 432 -210 788 -470 1140 -830 390 -400 675 -838 878 -1349 179 -451 263
-865 274 -1355 8 -357 -18 -633 -92 -965 -28 -123 -109 -417 -118 -427 -1 -1
-50 12 -107 28 -204 57 -303 73 -460 73 -99 -1 -168 -6 -218 -17 -142 -33
-284 -100 -388 -183 l-42 -34 24 -76 c46 -145 59 -244 58 -459 0 -179 -3 -212
-26 -310 -54 -229 -119 -356 -253 -491 -74 -75 -105 -98 -175 -132 -111 -54
-181 -72 -311 -79 l-106 -6 -6 -106 c-12 -243 -127 -478 -342 -700 -154 -160
-299 -253 -540 -349 -321 -128 -645 -192 -968 -192 -246 0 -425 33 -597 112
l-65 29 -117 -12 c-137 -14 -365 -7 -483 15 -225 41 -449 119 -747 259 l-118
56 0 -258 0 -257 82 -49 c165 -98 398 -189 667 -259 73 -19 135 -37 136 -38 1
-2 52 -227 113 -501 77 -347 118 -509 133 -533 29 -47 90 -91 152 -109 76 -22
1648 -22 1724 0 62 18 134 80 161 138 11 23 66 266 123 540 l103 497 41 11
c94 24 279 84 402 130 72 27 136 49 142 49 6 0 184 -153 396 -341 275 -242
397 -344 426 -355 63 -22 145 -18 204 10 47 22 1186 857 1248 914 15 15 41 53
57 86 24 47 30 72 30 123 0 61 -7 79 -210 527 -115 254 -210 466 -210 469 0 4
43 64 96 134 54 70 133 181 176 248 44 66 81 121 82 122 1 2 240 -20 530 -47
423 -40 536 -48 568 -40 53 15 112 70 142 133 43 92 469 1457 474 1520 6 74
-12 137 -52 181 -21 24 -181 120 -484 292 l-454 257 4 176 c2 97 1 236 -2 310
l-4 134 454 269 c256 151 469 283 487 302 39 42 51 107 35 186 -19 88 -500
1522 -520 1550 -10 14 -34 35 -52 48 -72 49 -74 49 -620 -12 -278 -31 -515
-59 -526 -61 -17 -4 -30 9 -69 68 -40 61 -216 298 -298 402 l-24 30 207 477
c114 262 210 495 214 517 9 60 -11 125 -53 171 -43 47 -1256 914 -1321 944
-57 26 -161 28 -205 4 -16 -9 -201 -172 -409 -363 -209 -190 -382 -348 -386
-350 -4 -3 -65 16 -136 41 -71 25 -203 67 -294 93 l-165 47 -116 515 c-63 283
-121 525 -128 539 -26 49 -75 90 -125 105 -74 22 -1584 21 -1666 -1z"/>
<path d="M4776 16161 c-19 -35 -21 -143 -5 -190 13 -37 7 -36 229 -56 691 -62
1247 -163 1788 -326 89 -27 166 -49 170 -49 4 0 15 27 26 61 20 66 74 154 131
218 l37 41 -28 11 c-77 29 -413 114 -609 154 -418 84 -847 132 -1340 150 -88
3 -210 8 -272 11 l-112 6 -15 -31z"/>
<path d="M9041 15857 c43 -103 94 -277 121 -408 20 -100 23 -142 23 -349 -1
-206 -4 -248 -23 -339 -13 -57 -19 -107 -15 -111 4 -4 71 -28 148 -55 461
-157 763 -351 856 -549 56 -121 50 -282 -15 -368 -47 -61 -58 -87 -52 -113 13
-50 85 -37 175 31 213 160 315 481 267 840 -72 543 -422 997 -995 1288 -162
83 -303 138 -508 201 -6 2 2 -29 18 -68z"/>
<path d="M4771 15763 c-22 -79 -9 -236 22 -261 7 -6 120 -29 252 -52 610 -104
1103 -215 1625 -366 14 -3 16 15 15 143 0 82 2 168 5 193 l5 45 -118 32 c-288
78 -625 146 -1007 202 -242 36 -741 101 -769 101 -15 0 -23 -10 -30 -37z"/>
<path d="M7482 15779 c-118 -23 -233 -113 -288 -224 -27 -55 -29 -69 -29 -170
0 -103 2 -114 32 -177 40 -85 106 -151 191 -191 62 -30 75 -32 172 -32 97 0
110 2 172 32 124 59 205 166 228 304 46 272 -205 512 -478 458z m294 -185 c42
-20 64 -59 64 -113 0 -50 -37 -96 -89 -112 -95 -28 -184 81 -138 171 16 32 73
70 104 70 14 0 40 -7 59 -16z"/>
<path d="M8170 15408 c0 -229 -128 -437 -331 -535 -109 -53 -173 -68 -289 -66
-290 4 -533 206 -589 491 l-17 86 -47 15 c-26 8 -50 12 -53 8 -4 -3 -9 -55
-11 -114 -14 -304 148 -608 403 -758 39 -23 43 -24 95 -10 157 43 327 59 614
59 371 0 590 -29 849 -115 87 -29 122 -36 127 -28 10 16 85 310 99 384 6 33
13 105 17 160 l6 100 -229 112 c-126 61 -319 150 -429 198 -110 48 -203 89
-207 92 -5 2 -8 -33 -8 -79z"/>
<path d="M4783 15293 c-15 -23 -18 -49 -18 -158 1 -179 8 -195 106 -225 41
-12 210 -64 375 -115 692 -215 1112 -323 1422 -365 153 -20 372 -14 372 11 0
5 -33 49 -74 97 -91 108 -140 183 -191 295 -47 102 -8 83 -364 171 -285 71
-661 147 -1166 236 -220 39 -410 73 -422 75 -16 4 -27 -2 -40 -22z"/>
<path d="M4791 14704 c-35 -44 -45 -101 -44 -254 0 -184 31 -396 63 -435 6 -7
94 -4 302 11 477 35 645 44 993 51 l329 6 72 57 c39 31 106 79 148 106 l78 49
-158 22 c-344 48 -740 139 -1364 313 -198 55 -369 100 -379 100 -11 0 -29 -12
-40 -26z"/>
<path d="M9082 14468 c-5 -18 -26 -97 -47 -174 l-37 -142 -87 -7 c-145 -12
-317 -73 -409 -145 l-23 -19 68 -20 c37 -11 95 -28 128 -37 36 -11 94 -18 144
-19 57 0 86 -4 88 -12 6 -18 -57 -53 -94 -53 -32 0 -33 -1 -31 -44 3 -52 -24
-101 -50 -91 -9 4 -55 18 -102 31 -125 35 -180 55 -180 64 0 4 19 10 43 14 59
9 117 28 117 37 0 4 -49 24 -110 44 l-110 37 -58 -46 c-164 -126 -281 -309
-334 -523 -30 -121 -30 -323 0 -435 26 -96 82 -210 138 -282 91 -115 242 -213
396 -256 92 -25 130 -26 145 -1 7 11 37 29 68 40 126 47 141 69 107 159 -21
55 -20 62 11 62 32 0 84 38 97 70 11 27 10 32 -5 44 -15 11 -16 22 -10 84 4
40 11 75 17 78 5 3 60 10 121 15 148 12 190 27 216 83 28 56 28 172 1 285 -25
104 -103 312 -180 483 -33 72 -60 135 -60 140 0 5 24 20 53 33 41 20 68 25
129 25 42 0 83 3 92 6 24 9 73 93 96 167 24 75 30 171 12 203 -8 15 -56 37
-174 78 -90 31 -166 56 -170 56 -4 0 -11 -15 -16 -32z"/>
<path d="M7735 14439 c-399 -23 -752 -118 -1000 -270 -149 -91 -156 -84 93
-85 564 -4 837 -95 947 -317 20 -40 38 -90 41 -112 10 -71 15 -71 44 -2 66
157 227 344 388 451 144 95 347 167 519 182 l78 7 -70 24 c-197 67 -432 108
-698 123 -95 5 -181 9 -192 8 -11 0 -78 -4 -150 -9z"/>
<path d="M5915 13954 c-342 -13 -703 -39 -970 -69 -116 -13 -132 -18 -152 -40
-48 -54 -58 -261 -16 -341 l20 -39 419 -7 c530 -8 898 -36 1324 -99 126 -19
472 -83 514 -96 16 -4 15 0 -7 29 -15 19 -39 61 -54 93 -25 54 -28 70 -28 171
0 107 1 112 37 185 25 51 56 93 93 128 31 29 55 54 53 56 -17 15 -997 38
-1233 29z"/>
<path d="M7302 13836 c-82 -27 -151 -93 -182 -174 -74 -193 64 -395 270 -396
199 0 337 189 280 382 -44 143 -223 235 -368 188z m168 -155 c124 -89 70 -271
-81 -271 -90 0 -161 87 -144 176 8 43 68 109 107 117 37 8 91 -3 118 -22z"/>
<path d="M7316 13597 c-12 -9 -17 -23 -14 -47 l3 -35 85 0 85 0 3 39 c2 24 -2
42 -10 47 -21 14 -132 10 -152 -4z"/>
<path d="M7772 13343 c-4 -26 -125 -142 -177 -169 -63 -33 -63 -28 -5 -145 79
-157 230 -352 338 -437 83 -65 117 -44 59 35 -132 181 -195 362 -207 593 -4
74 -7 130 -8 123z"/>
<path d="M5030 13325 c-8 -2 -60 -7 -114 -10 -86 -6 -102 -10 -123 -31 l-23
-23 0 -340 c0 -326 1 -341 19 -351 11 -5 28 -10 37 -10 10 0 111 56 224 124
250 151 431 255 655 373 177 94 427 213 447 213 8 0 8 3 3 9 -20 19 -424 43
-765 46 -190 2 -352 2 -360 0z"/>
<path d="M5950 13074 c-625 -391 -1080 -692 -1133 -749 -111 -119 -173 -436
-148 -766 24 -323 93 -569 161 -577 22 -2 35 14 124 160 661 1081 976 1539
1355 1962 125 140 132 155 76 156 -11 0 -42 3 -70 6 l-50 6 -315 -198z"/>
<path d="M6551 13156 c-335 -413 -720 -971 -1043 -1511 -267 -446 -598 -1084
-828 -1598 l-44 -97 35 -73 c26 -55 55 -93 125 -163 83 -84 100 -97 215 -152
68 -34 165 -72 214 -86 204 -58 537 -93 756 -81 l116 7 7 227 c42 1388 232
2424 627 3414 33 82 59 151 57 152 -2 1 -43 9 -91 17 l-88 15 -58 -71z"/>
<path d="M6906 13111 c-225 -501 -370 -1324 -417 -2356 -22 -486 4 -1452 40
-1474 43 -27 373 -55 546 -46 455 23 798 134 1066 345 183 145 309 357 350
595 7 44 8 70 2 72 -6 2 -50 27 -99 55 -669 382 -1080 1083 -1163 1983 -19
209 -22 371 -11 589 6 120 9 220 7 223 -3 2 -63 17 -133 34 -71 16 -136 32
-145 34 -12 4 -23 -10 -43 -54z"/>
<path d="M7294 13013 c-17 -191 19 -527 86 -787 224 -878 784 -1559 1425
-1736 76 -21 81 -22 131 -6 257 81 507 562 507 976 0 114 -9 171 -39 241 l-16
37 -55 -24 c-451 -200 -990 -61 -1442 370 -260 249 -461 590 -526 891 -24 114
-24 115 -45 115 -16 0 -19 -11 -26 -77z"/>
<path d="M7421 13038 c92 -422 457 -883 869 -1097 169 -87 302 -122 469 -122
176 0 329 54 449 156 59 51 55 62 -25 70 -208 18 -310 53 -421 144 -35 28 -73
53 -85 55 -12 3 -83 7 -157 10 -91 3 -161 11 -215 25 -212 56 -463 230 -606
423 -47 64 -157 269 -190 355 -7 19 -16 23 -53 23 l-44 0 9 -42z"/>
<path d="M9740 6428 c-69 -89 -71 -93 -48 -99 62 -18 85 -11 125 39 58 69 58
69 28 113 -15 21 -29 39 -31 39 -1 0 -35 -42 -74 -92z"/>
<path d="M5655 6207 c-201 -52 -357 -228 -427 -482 -18 -67 -21 -108 -22 -250
-1 -148 2 -181 22 -255 107 -392 421 -589 720 -450 35 17 82 44 103 61 l39 31
0 175 0 175 -52 -47 c-29 -25 -87 -63 -127 -83 -65 -32 -84 -37 -145 -37 -84
0 -127 18 -187 78 -79 79 -119 197 -119 352 0 314 180 497 407 414 47 -18 74
-38 141 -106 l82 -84 0 195 0 194 -60 41 c-33 22 -86 49 -118 61 -70 27 -188
34 -257 17z"/>
<path d="M7784 6205 c-191 -41 -345 -211 -420 -460 -36 -121 -45 -339 -19
-466 61 -301 240 -512 465 -548 258 -41 491 155 581 489 20 74 23 108 23 255
-1 199 -16 272 -90 423 -36 74 -61 109 -117 166 -83 83 -149 121 -244 141 -81
17 -100 17 -179 0z m181 -324 c212 -96 261 -541 84 -755 -37 -44 -118 -86
-168 -86 -176 0 -304 208 -288 469 3 53 13 117 21 142 35 113 102 201 176 233
48 21 127 19 175 -3z"/>
<path d="M9690 6209 c-68 -13 -119 -36 -186 -85 -230 -163 -338 -546 -254
-894 25 -104 94 -247 152 -317 186 -223 474 -249 675 -61 154 145 235 357 235
618 0 254 -77 465 -222 608 -64 63 -171 119 -255 132 -69 11 -83 11 -145 -1z
m188 -339 c102 -59 161 -186 169 -365 8 -178 -35 -313 -128 -400 -137 -128
-320 -59 -398 151 -91 241 -4 564 169 633 14 5 50 10 80 10 44 1 66 -5 108
-29z"/>
<path d="M10893 6206 c-95 -23 -163 -65 -248 -150 -62 -63 -90 -100 -123 -166
-69 -141 -85 -217 -86 -415 -1 -147 2 -181 22 -255 85 -314 284 -493 547 -492
109 1 192 24 318 90 l87 46 0 343 0 343 -230 0 -230 0 0 -145 0 -145 105 0
105 0 0 -100 c0 -100 0 -101 -27 -111 -16 -6 -61 -14 -101 -17 -66 -4 -77 -2
-136 27 -98 48 -152 123 -186 256 -35 138 -23 300 31 412 28 57 92 128 146
160 34 20 63 27 118 31 66 4 80 2 138 -26 43 -20 85 -51 125 -91 l59 -61 6 67
c4 38 9 115 13 173 l7 106 -34 25 c-122 93 -284 129 -426 95z"/>
<path d="M12480 6202 c-211 -55 -373 -260 -426 -538 -12 -68 -15 -124 -11
-234 5 -149 17 -213 61 -322 106 -261 329 -413 553 -378 70 11 187 62 236 102
l28 23 -3 172 -3 172 -55 -46 c-160 -134 -327 -147 -440 -34 -85 85 -121 192
-122 356 0 154 34 259 112 348 57 64 117 90 200 85 92 -5 150 -36 238 -126
l72 -75 0 191 0 190 -31 27 c-71 59 -203 105 -299 104 -25 0 -74 -8 -110 -17z"/>
<path d="M13476 6210 c-144 -26 -295 -152 -374 -312 -172 -350 -110 -812 141
-1044 132 -122 302 -159 463 -101 162 59 301 237 361 465 22 84 26 118 27 252
0 183 -20 285 -84 415 -113 232 -326 362 -534 325z m196 -346 c148 -103 208
-392 127 -610 -78 -208 -262 -276 -398 -149 -93 87 -136 221 -128 400 8 178
67 305 169 365 47 28 60 31 120 28 55 -3 75 -9 110 -34z"/>
<path d="M3300 6025 l0 -145 170 0 170 0 0 -555 0 -555 130 0 130 0 0 555 0
555 170 0 170 0 0 145 0 145 -470 0 -470 0 0 -145z"/>
<path d="M4400 5470 l0 -700 335 0 335 0 0 145 0 145 -210 0 -210 0 0 140 0
140 120 0 120 0 0 145 0 145 -120 0 -120 0 0 125 0 125 205 0 205 0 0 145 0
145 -330 0 -330 0 0 -700z"/>
<path d="M6260 5471 l0 -701 120 0 120 0 2 378 3 378 310 -378 c292 -355 312
-378 343 -378 l32 0 0 700 0 700 -115 0 -115 0 0 -381 c0 -240 -4 -379 -10
-377 -5 2 -147 172 -316 378 -283 347 -309 375 -340 378 l-34 3 0 -700z"/>
<path d="M8560 5470 l0 -700 335 0 335 0 0 150 0 150 -210 0 -210 0 0 550 0
550 -125 0 -125 0 0 -700z"/>
<path d="M11630 5470 l0 -700 125 0 125 0 0 700 0 700 -125 0 -125 0 0 -700z"/>
<path d="M13058 4157 l-58 -72 63 -3 c59 -3 63 -2 90 29 15 19 27 36 27 39 0
3 -15 22 -33 42 l-32 37 -57 -72z"/>
<path d="M2578 4031 c-292 -96 -473 -446 -428 -825 15 -123 40 -208 93 -311
49 -94 153 -205 238 -253 170 -96 395 -78 557 44 l32 25 0 175 0 176 -51 -46
c-77 -69 -182 -117 -269 -124 -64 -4 -76 -2 -135 27 -46 23 -77 47 -105 82
-125 158 -130 454 -10 621 126 176 331 171 505 -14 l65 -68 0 192 0 193 -49
33 c-91 63 -164 86 -281 89 -82 2 -118 -1 -162 -16z"/>
<path d="M4176 4039 c-82 -19 -169 -72 -243 -147 -60 -59 -82 -92 -122 -175
-73 -151 -86 -211 -86 -402 0 -170 9 -223 59 -347 78 -193 231 -339 396 -377
203 -47 411 43 538 233 289 432 110 1117 -319 1215 -53 13 -170 12 -223 0z
m209 -318 c47 -21 115 -92 145 -150 52 -104 68 -284 36 -410 -46 -178 -167
-284 -306 -268 -61 7 -94 24 -143 74 -158 157 -166 494 -17 683 64 81 193 113
285 71z"/>
<path d="M15740 4030 c-177 -27 -330 -145 -420 -325 -77 -152 -109 -334 -90
-506 14 -127 34 -196 87 -308 37 -78 58 -107 126 -175 144 -144 298 -193 475
-151 71 17 164 61 211 100 l31 27 0 169 c0 93 -3 169 -6 169 -3 0 -29 -20 -57
-44 -80 -71 -167 -109 -260 -114 -99 -6 -151 13 -217 79 -82 82 -122 194 -122
344 0 146 39 260 117 344 63 67 128 94 214 89 96 -5 168 -44 259 -137 l72 -74
0 191 0 190 -31 27 c-95 79 -262 124 -389 105z"/>
<path d="M16669 4007 c-189 -68 -325 -236 -391 -481 -32 -116 -31 -354 1 -471
58 -215 179 -376 338 -452 294 -141 611 27 733 388 65 191 65 406 -1 604 -50
149 -126 260 -234 340 -89 66 -151 87 -275 92 -92 3 -113 1 -171 -20z m256
-311 c181 -84 253 -409 146 -652 -27 -59 -98 -133 -151 -157 -158 -70 -318 39
-376 258 -18 67 -18 227 1 298 57 221 219 329 380 253z"/>
<path d="M0 3315 l0 -695 125 0 125 0 2 375 3 375 323 -375 c308 -357 325
-375 358 -375 l34 0 0 695 0 695 -120 0 -120 0 0 -380 c0 -209 -3 -380 -7
-379 -5 0 -132 144 -283 320 -384 448 -376 439 -411 439 l-29 0 0 -695z"/>
<path d="M1601 3988 c-5 -13 -127 -318 -271 -678 -145 -360 -265 -663 -268
-673 -4 -16 5 -17 129 -15 l133 3 35 98 35 97 231 0 230 0 34 -100 34 -100
138 0 c77 0 139 2 139 5 0 3 -469 1203 -537 1373 -9 21 -53 14 -62 -10z m169
-925 c0 -2 -65 -3 -145 -3 -94 0 -145 4 -145 10 0 10 116 355 136 404 5 13 28
-42 80 -195 41 -118 74 -215 74 -216z"/>
<path d="M3297 4003 c-4 -3 -7 -316 -7 -695 l0 -688 135 0 135 0 0 695 0 695
-128 0 c-71 0 -132 -3 -135 -7z"/>
<path d="M4980 3315 l0 -695 120 0 120 0 2 377 3 377 323 -372 c323 -372 323
-372 363 -372 l39 0 -2 688 -3 687 -122 3 -123 3 -2 -382 -3 -381 -329 381
c-288 332 -334 381 -358 381 l-28 0 0 -695z"/>
<path d="M6311 3328 c-150 -376 -276 -689 -278 -695 -4 -10 26 -13 130 -13
l134 0 35 98 34 97 231 3 231 2 35 -97 35 -98 136 -3 c105 -2 136 0 136 10 -1
7 -121 319 -268 693 -249 635 -269 680 -292 683 -24 3 -34 -18 -299 -680z
m363 -53 c36 -110 66 -203 66 -208 0 -4 -66 -7 -146 -7 -113 0 -145 3 -142 13
3 6 36 103 73 214 38 112 72 199 76 195 4 -4 36 -97 73 -207z"/>
<path d="M7267 4003 c-4 -3 -7 -316 -7 -695 l0 -688 355 0 355 0 0 150 0 150
-220 0 -220 0 0 545 0 545 -128 0 c-71 0 -132 -3 -135 -7z"/>
<path d="M8788 4004 c-5 -4 -8 -318 -8 -697 l0 -690 228 6 c243 5 298 14 396
63 156 78 272 227 323 414 14 49 18 103 18 220 0 175 -18 261 -78 375 -42 79
-155 192 -234 233 -111 58 -193 73 -428 79 -115 3 -213 2 -217 -3z m484 -321
c61 -28 134 -96 163 -153 56 -113 61 -294 10 -408 -57 -127 -180 -202 -331
-202 l-64 0 0 396 0 396 88 -4 c59 -3 102 -11 134 -25z"/>
<path d="M9907 4003 c-4 -3 -7 -316 -7 -695 l0 -688 350 0 350 0 0 145 0 145
-220 0 -220 0 0 140 0 140 145 0 145 0 0 140 0 140 -145 0 -145 0 0 125 0 125
215 0 215 0 0 145 0 145 -338 0 c-186 0 -342 -3 -345 -7z"/>
<path d="M11506 3963 c-3 -15 -53 -316 -111 -668 -58 -352 -108 -652 -111
-667 l-6 -28 120 0 120 0 5 28 c2 15 24 156 48 315 24 158 46 287 49 287 3 0
70 -142 150 -315 l144 -315 36 0 36 0 134 306 c74 168 137 307 140 309 4 2 25
-123 49 -278 23 -155 44 -294 47 -309 l6 -28 124 0 c100 0 124 3 124 14 0 8
-49 316 -110 685 -60 368 -110 675 -110 681 0 6 -12 10 -26 8 -24 -3 -40 -36
-209 -418 -101 -228 -187 -421 -192 -428 -5 -8 -78 138 -208 415 -165 351
-204 429 -222 431 -16 2 -23 -3 -27 -25z"/>
<path d="M12737 3983 c-4 -3 -7 -316 -7 -695 l0 -688 350 0 350 0 0 145 0 145
-220 0 -221 0 3 138 3 137 133 3 132 3 0 139 0 140 -135 0 -135 0 0 125 0 125
220 0 220 0 0 145 0 145 -343 0 c-189 0 -347 -3 -350 -7z"/>
<path d="M13610 3987 c0 -2 73 -152 162 -333 89 -181 161 -333 161 -339 0 -5
-89 -167 -197 -358 -108 -191 -196 -350 -196 -353 0 -2 66 -3 146 -2 l145 3
124 225 c68 123 127 226 132 227 4 1 66 -99 138 -224 71 -124 134 -227 140
-229 6 -3 81 -3 166 -2 l156 3 -199 335 c-110 184 -209 351 -220 371 l-20 36
180 319 181 319 -137 3 c-75 1 -141 1 -147 -1 -5 -3 -57 -91 -115 -196 -58
-105 -107 -191 -111 -191 -3 0 -57 88 -120 195 l-114 195 -127 0 c-71 0 -128
-2 -128 -3z"/>
<path d="M14830 3295 l0 -695 135 0 135 0 0 695 0 695 -135 0 -135 0 0 -695z"/>
</g>
</svg>
